# xmcd CD database file
#
# Track frame offsets:
#	150
#	27455
#	55592
#	76153
#	98864
#	119913
#	145754
#	164286
#	191403
#	211506
#	229107
#
# Disc length: 3487 seconds
#
# Revision: 0
# Processed by: cddbd v1.5.1PL2 Copyright (c) Steve Scherf et al.
# Submitted via: CDex 1.60beta1-cs1
#
DISCID=8b0d9d0b
DTITLE=Jean-Marc Staehle and Joeve  - In the Heart of the Rose
DYEAR=2004
DGENRE=New Age
TTITLE0=Opening
TTITLE1=Peace of the Heart
TTITLE2=In the heart of the Rose
TTITLE3=Hidden treasury
TTITLE4=The Voice of the Heart
TTITLE5=Awakening with the Love
TTITLE6=The perfume of the Heart 
TTITLE7=Secret garden
TTITLE8=The Gold of the Heart
TTITLE9=The Way of the Heart 
TTITLE10=Rise
EXTD=YEAR: 2004
EXTT0=
EXTT1=
EXTT2=
EXTT3=
EXTT4=
EXTT5=
EXTT6=
EXTT7=
EXTT8=
EXTT9=
EXTT10=
PLAYORDER=
